<svg width="152" height="152" viewBox="0 0 152 152" xmlns="http://www.w3.org/2000/svg">
  <defs>
    <linearGradient id="bgGrad" x1="0%" y1="0%" x2="100%" y2="100%">
      <stop offset="0%" style="stop-color:#ffffff;stop-opacity:1" />
      <stop offset="100%" style="stop-color:#f8f9fa;stop-opacity:1" />
    </linearGradient>
    <linearGradient id="greenGradient" x1="0%" y1="0%" x2="100%" y2="0%">
      <stop offset="0%" style="stop-color:#7BC142;stop-opacity:1" />
      <stop offset="50%" style="stop-color:#4BAA47;stop-opacity:1" />
      <stop offset="100%" style="stop-color:#3a8a37;stop-opacity:1" />
    </linearGradient>
  </defs>

  <!-- Background with subtle gradient -->
  <rect width="152" height="152" rx="15.200000000000001" fill="url(#bgGrad)"/>

  <!-- Element Cleaning Systems Logo (scaled and centered) -->
  <g transform="translate(7.6000000000000005, 15.200000000000001) scale(0.342)">
    <!-- Green swoosh curves (simplified for smaller icons) -->
    
    <path d="M0 300 Q60 200 120 250 Q180 300 240 270 Q300 240 360 260"
          stroke="url(#greenGradient)" stroke-width="4.5600000000000005" fill="none" opacity="0.8"/>
    <path d="M0 320 Q72 220 144 270 Q216 320 288 290 Q360 260 400 280"
          stroke="url(#greenGradient)" stroke-width="3.04" fill="none" opacity="0.6"/>
    

    <!-- Main text "Element" -->
    <text x="7.6" y="68.4" font-family="Arial, sans-serif"
          font-size="45.6" font-weight="bold" fill="#1a5f1a">Element</text>

    <!-- Cleaning Systems text (only show on larger icons) -->
    

    <!-- Spray bottle icon (simplified for smaller sizes) -->
    <g transform="translate(200, 19)">
      <!-- Bottle body -->
      <rect x="0" y="15.2" width="11.4" height="30.4"
            rx="1.9" fill="#4BAA47"/>
      <!-- Bottle neck -->
      <rect x="3.04" y="11.4" width="5.32"
            height="5.7" fill="#4BAA47"/>
      <!-- Trigger -->
      <path d="M11.4 19 Q15.2 17.1
               17.1 20.9 Q15.2 24.7
               11.4 22.8" fill="#4BAA47"/>

      
      <!-- Spray dots -->
      <circle cx="24.7" cy="15.2" r="0.76" fill="#7BC142" opacity="0.8"/>
      <circle cx="26.6" cy="17.1" r="0.5700000000000001" fill="#7BC142" opacity="0.6"/>
      <circle cx="25.84" cy="20.9" r="0.5700000000000001" fill="#7BC142" opacity="0.6"/>
      
    </g>
  </g>
</svg>